<svg fill="#ffffff" version="1.1" id="icon" xmlns="http://www.w3.org/2000/svg" xmlns:xlink="http://www.w3.org/1999/xlink" width="34px" height="34px" viewBox="0 0 32 32" xml:space="preserve"><g id="SVGRepo_bgCarrier" stroke-width="0"></g><g id="SVGRepo_tracerCarrier" stroke-linecap="round" stroke-linejoin="round"></g><g id="SVGRepo_iconCarrier"> <style type="text/css"> .st0{fill:none;} </style> <title>copy--file</title> <path d="M27.4,14.7l-6.1-6.1C21,8.2,20.5,8,20,8h-8c-1.1,0-2,0.9-2,2v18c0,1.1,0.9,2,2,2h14c1.1,0,2-0.9,2-2V16.1 C28,15.6,27.8,15.1,27.4,14.7z M20,10l5.9,6H20V10z M12,28V10h6v6c0,1.1,0.9,2,2,2h6l0,10H12z"></path> <path d="M6,18H4V4c0-1.1,0.9-2,2-2h14v2H6V18z"></path> <rect id="_Transparent_Rectangle_" class="st0" width="22" height="22"></rect> </g></svg>